<svg width="252" height="245" viewBox="0 0 252 245" fill="none" xmlns="http://www.w3.org/2000/svg">
<path d="M4.26377 237.754C6.19327 238.105 7.59656 240.035 7.24574 241.964C6.89492 243.894 4.96538 245.297 3.03589 244.946C1.10639 244.595 -0.296898 242.666 0.053919 240.736C0.404736 238.631 2.15887 237.403 4.26377 237.754Z" fill="#F0C631"/>
<path d="M7.36719 213.011C7.36719 210.977 5.71793 209.328 3.68354 209.328C1.64915 209.328 -2.49943e-07 210.977 -1.61017e-07 213.011C-7.20915e-08 215.046 1.64915 216.695 3.68354 216.695C5.71793 216.695 7.36719 215.046 7.36719 213.011Z" fill="#F0C631"/>
<path d="M7.79676 183.683C7.52212 181.668 5.66538 180.256 3.64971 180.531C1.63404 180.806 0.222709 182.662 0.497351 184.678C0.771993 186.694 2.62861 188.105 4.64428 187.83C6.65995 187.556 8.0714 185.699 7.79676 183.683Z" fill="#F0C631"/>
<path d="M4.26377 151.788C6.19327 152.139 7.59656 154.068 7.24574 155.998C6.89492 157.927 4.96538 159.331 3.03589 158.98C1.10639 158.629 -0.296898 156.699 0.053919 154.77C0.404736 152.665 2.15887 151.437 4.26377 151.788Z" fill="#F0C631"/>
<path d="M4.26377 123.483C6.19327 123.834 7.59656 125.763 7.24574 127.693C6.89492 129.622 4.96538 131.025 3.03589 130.675C1.10639 130.324 -0.296898 128.394 0.053919 126.465C0.404736 124.36 2.15887 123.132 4.26377 123.483Z" fill="#F0C631"/>
<path d="M4.26377 95.1776C6.19327 95.5284 7.59656 97.458 7.24574 99.3875C6.89492 101.317 4.96538 102.72 3.03589 102.369C1.10639 102.019 -0.296898 100.089 0.053919 98.1596C0.404736 96.0547 2.15887 94.8268 4.26377 95.1776Z" fill="#F0C631"/>
<path d="M4.26377 66.8722C6.19327 67.223 7.59656 69.1525 7.24574 71.082C6.89492 73.0115 4.96538 74.4148 3.03589 74.064C1.10639 73.7132 -0.296898 71.7836 0.053919 69.8541C0.404736 67.7492 2.15887 66.5214 4.26377 66.8722Z" fill="#F0C631"/>
<path d="M4.26377 38.567C6.19327 38.9178 7.59656 40.8474 7.24574 42.7769C6.89492 44.7064 4.96538 46.1096 3.03589 45.7588C1.10639 45.408 -0.296898 43.4785 0.053919 41.549C0.404736 39.4441 2.15887 38.2162 4.26377 38.567Z" fill="#F0C631"/>
<path d="M4.26377 10.2619C6.19327 10.6127 7.59656 12.5423 7.24574 14.4718C6.89492 16.4013 4.96538 17.8045 3.03589 17.4536C1.10639 17.1028 -0.296898 15.1734 0.053919 13.2439C0.404736 11.3144 2.15887 9.91111 4.26377 10.2619Z" fill="#F0C631"/>
<path d="M28.5577 237.754C30.4872 238.105 31.8905 240.035 31.5397 241.964C31.1889 243.894 29.2593 245.297 27.3298 244.946C25.4003 244.595 23.997 242.666 24.3479 240.736C24.6987 238.631 26.4528 237.403 28.5577 237.754Z" fill="#F0C631"/>
<path d="M31.6611 213.011C31.6611 210.977 30.0119 209.328 27.9775 209.328C25.9431 209.328 24.2939 210.977 24.2939 213.011C24.2939 215.046 25.9431 216.695 27.9775 216.695C30.0119 216.695 31.6611 215.046 31.6611 213.011Z" fill="#F0C631"/>
<path d="M32.0907 183.683C31.8161 181.668 29.9593 180.256 27.9437 180.531C25.928 180.806 24.5167 182.662 24.7913 184.678C25.0659 186.694 26.9226 188.105 28.9382 187.83C30.9539 187.556 32.3653 185.699 32.0907 183.683Z" fill="#F0C631"/>
<path d="M28.5577 151.788C30.4872 152.139 31.8905 154.068 31.5397 155.998C31.1889 157.927 29.2593 159.331 27.3298 158.98C25.4003 158.629 23.997 156.699 24.3479 154.77C24.6987 152.665 26.4528 151.437 28.5577 151.788Z" fill="#F0C631"/>
<path d="M28.5577 123.483C30.4872 123.834 31.8905 125.763 31.5397 127.693C31.1889 129.622 29.2593 131.025 27.3298 130.675C25.4003 130.324 23.997 128.394 24.3479 126.465C24.6987 124.36 26.4528 123.132 28.5577 123.483Z" fill="#F0C631"/>
<path d="M28.5577 95.1776C30.4872 95.5284 31.8905 97.458 31.5397 99.3875C31.1889 101.317 29.2593 102.72 27.3298 102.369C25.4003 102.019 23.997 100.089 24.3479 98.1596C24.6987 96.0547 26.4528 94.8268 28.5577 95.1776Z" fill="#F0C631"/>
<path d="M28.5577 66.8722C30.4872 67.223 31.8905 69.1525 31.5397 71.082C31.1889 73.0115 29.2593 74.4148 27.3298 74.064C25.4003 73.7132 23.997 71.7836 24.3479 69.8541C24.6987 67.7492 26.4528 66.5214 28.5577 66.8722Z" fill="#F0C631"/>
<path d="M28.5577 38.567C30.4872 38.9178 31.8905 40.8474 31.5397 42.7769C31.1889 44.7064 29.2593 46.1096 27.3298 45.7588C25.4003 45.408 23.997 43.4785 24.3479 41.549C24.6987 39.4441 26.4528 38.2162 28.5577 38.567Z" fill="#F0C631"/>
<path d="M28.5577 10.2619C30.4872 10.6127 31.8905 12.5423 31.5397 14.4718C31.1889 16.4013 29.2593 17.8045 27.3298 17.4536C25.4003 17.1028 23.997 15.1734 24.3479 13.2439C24.6987 11.3144 26.4528 9.91111 28.5577 10.2619Z" fill="#F0C631"/>
<path d="M52.8517 237.754C54.7812 238.105 56.1844 240.035 55.8336 241.964C55.4828 243.894 53.5533 245.297 51.6238 244.946C49.6943 244.595 48.291 242.666 48.6418 240.736C48.9926 238.631 50.7468 237.403 52.8517 237.754Z" fill="#F0C631"/>
<path d="M55.9551 213.011C55.9551 210.977 54.3058 209.328 52.2714 209.328C50.237 209.328 48.5879 210.977 48.5879 213.011C48.5879 215.046 50.237 216.695 52.2714 216.695C54.3058 216.695 55.9551 215.046 55.9551 213.011Z" fill="#F0C631"/>
<path d="M56.3846 183.683C56.11 181.668 54.2533 180.256 52.2376 180.531C50.2219 180.806 48.8106 182.662 49.0852 184.678C49.3599 186.694 51.2165 188.105 53.2322 187.83C55.2478 187.556 56.6593 185.699 56.3846 183.683Z" fill="#F0C631"/>
<path d="M52.8517 151.788C54.7812 152.139 56.1844 154.068 55.8336 155.998C55.4828 157.927 53.5533 159.331 51.6238 158.98C49.6943 158.629 48.291 156.699 48.6418 154.77C48.9926 152.665 50.7468 151.437 52.8517 151.788Z" fill="#F0C631"/>
<path d="M52.8517 123.483C54.7812 123.834 56.1844 125.763 55.8336 127.693C55.4828 129.622 53.5533 131.025 51.6238 130.675C49.6943 130.324 48.291 128.394 48.6418 126.465C48.9926 124.36 50.7468 123.132 52.8517 123.483Z" fill="#F0C631"/>
<path d="M52.8517 95.1776C54.7812 95.5284 56.1844 97.458 55.8336 99.3875C55.4828 101.317 53.5533 102.72 51.6238 102.369C49.6943 102.019 48.291 100.089 48.6418 98.1596C48.9926 96.0547 50.7468 94.8268 52.8517 95.1776Z" fill="#F0C631"/>
<path d="M52.8517 66.8722C54.7812 67.223 56.1844 69.1525 55.8336 71.082C55.4828 73.0115 53.5533 74.4148 51.6238 74.064C49.6943 73.7132 48.291 71.7836 48.6418 69.8541C48.9926 67.7492 50.7468 66.5214 52.8517 66.8722Z" fill="#F0C631"/>
<path d="M52.8517 38.567C54.7812 38.9178 56.1844 40.8474 55.8336 42.7769C55.4828 44.7064 53.5533 46.1096 51.6238 45.7588C49.6943 45.408 48.291 43.4785 48.6418 41.549C48.9926 39.4441 50.7468 38.2162 52.8517 38.567Z" fill="#F0C631"/>
<path d="M52.8517 10.2619C54.7812 10.6127 56.1844 12.5423 55.8336 14.4718C55.4828 16.4013 53.5533 17.8045 51.6238 17.4536C49.6943 17.1028 48.291 15.1734 48.6418 13.2439C48.9926 11.3144 50.7468 9.91111 52.8517 10.2619Z" fill="#F0C631"/>
<path d="M77.1456 237.754C79.0751 238.105 80.4784 240.035 80.1276 241.964C79.7768 243.894 77.8472 245.297 75.9177 244.946C73.9882 244.595 72.5849 242.666 72.9358 240.736C73.2866 238.631 75.0407 237.403 77.1456 237.754Z" fill="#F0C631"/>
<path d="M80.249 213.011C80.249 210.977 78.5998 209.328 76.5654 209.328C74.531 209.328 72.8818 210.977 72.8818 213.011C72.8818 215.046 74.531 216.695 76.5654 216.695C78.5998 216.695 80.249 215.046 80.249 213.011Z" fill="#F0C631"/>
<path d="M80.6786 183.683C80.404 181.668 78.5472 180.256 76.5315 180.531C74.5159 180.806 73.1045 182.662 73.3792 184.678C73.6538 186.694 75.5104 188.105 77.5261 187.83C79.5418 187.556 80.9532 185.699 80.6786 183.683Z" fill="#F0C631"/>
<path d="M77.1456 151.788C79.0751 152.139 80.4784 154.068 80.1276 155.998C79.7768 157.927 77.8472 159.331 75.9177 158.98C73.9882 158.629 72.5849 156.699 72.9358 154.77C73.2866 152.665 75.0407 151.437 77.1456 151.788Z" fill="#F0C631"/>
<path d="M77.1456 123.483C79.0751 123.834 80.4784 125.763 80.1276 127.693C79.7768 129.622 77.8472 131.025 75.9177 130.675C73.9882 130.324 72.5849 128.394 72.9358 126.465C73.2866 124.36 75.0407 123.132 77.1456 123.483Z" fill="#F0C631"/>
<path d="M77.1456 95.1776C79.0751 95.5284 80.4784 97.458 80.1276 99.3875C79.7768 101.317 77.8472 102.72 75.9177 102.369C73.9882 102.019 72.5849 100.089 72.9358 98.1596C73.2866 96.0547 75.0407 94.8268 77.1456 95.1776Z" fill="#F0C631"/>
<path d="M77.1456 66.8722C79.0751 67.223 80.4784 69.1525 80.1276 71.082C79.7768 73.0115 77.8472 74.4148 75.9177 74.064C73.9882 73.7132 72.5849 71.7836 72.9358 69.8541C73.2866 67.7492 75.0407 66.5214 77.1456 66.8722Z" fill="#F0C631"/>
<path d="M77.1456 38.567C79.0751 38.9178 80.4784 40.8474 80.1276 42.7769C79.7768 44.7064 77.8472 46.1096 75.9177 45.7588C73.9882 45.408 72.5849 43.4785 72.9358 41.549C73.2866 39.4441 75.0407 38.2162 77.1456 38.567Z" fill="#F0C631"/>
<path d="M77.1456 10.2619C79.0751 10.6127 80.4784 12.5423 80.1276 14.4718C79.7768 16.4013 77.8472 17.8045 75.9177 17.4536C73.9882 17.1028 72.5849 15.1734 72.9358 13.2439C73.2866 11.3144 75.0407 9.91111 77.1456 10.2619Z" fill="#F0C631"/>
<path d="M101.44 237.754C103.369 238.105 104.772 240.035 104.422 241.964C104.071 243.894 102.141 245.297 100.212 244.946C98.2822 244.595 96.8789 242.666 97.2297 240.736C97.5805 238.631 99.3346 237.403 101.44 237.754Z" fill="#F0C631"/>
<path d="M104.543 213.011C104.543 210.977 102.894 209.328 100.859 209.328C98.8249 209.328 97.1758 210.977 97.1758 213.011C97.1758 215.046 98.8249 216.695 100.859 216.695C102.894 216.695 104.543 215.046 104.543 213.011Z" fill="#F0C631"/>
<path d="M104.973 183.683C104.698 181.668 102.841 180.256 100.825 180.531C98.8098 180.806 97.3985 182.662 97.6731 184.678C97.9478 186.694 99.8044 188.105 101.82 187.83C103.836 187.556 105.247 185.699 104.973 183.683Z" fill="#F0C631"/>
<path d="M101.44 151.788C103.369 152.139 104.772 154.068 104.422 155.998C104.071 157.927 102.141 159.331 100.212 158.98C98.2822 158.629 96.8789 156.699 97.2297 154.77C97.5805 152.665 99.3346 151.437 101.44 151.788Z" fill="#F0C631"/>
<path d="M101.44 123.483C103.369 123.834 104.772 125.763 104.422 127.693C104.071 129.622 102.141 131.025 100.212 130.675C98.2822 130.324 96.8789 128.394 97.2297 126.465C97.5805 124.36 99.3346 123.132 101.44 123.483Z" fill="#F0C631"/>
<path d="M101.44 95.1776C103.369 95.5284 104.772 97.458 104.422 99.3875C104.071 101.317 102.141 102.72 100.212 102.369C98.2822 102.019 96.8789 100.089 97.2297 98.1596C97.5805 96.0547 99.3346 94.8268 101.44 95.1776Z" fill="#F0C631"/>
<path d="M101.44 66.8722C103.369 67.223 104.772 69.1525 104.422 71.082C104.071 73.0115 102.141 74.4148 100.212 74.064C98.2822 73.7132 96.8789 71.7836 97.2297 69.8541C97.5805 67.7492 99.3346 66.5214 101.44 66.8722Z" fill="#F0C631"/>
<path d="M101.44 38.567C103.369 38.9178 104.772 40.8474 104.422 42.7769C104.071 44.7064 102.141 46.1096 100.212 45.7588C98.2822 45.408 96.8789 43.4785 97.2297 41.549C97.5805 39.4441 99.3346 38.2162 101.44 38.567Z" fill="#F0C631"/>
<path d="M101.44 10.2619C103.369 10.6127 104.772 12.5423 104.422 14.4718C104.071 16.4013 102.141 17.8045 100.212 17.4536C98.2822 17.1028 96.8789 15.1734 97.2297 13.2439C97.5805 11.3144 99.3346 9.91111 101.44 10.2619Z" fill="#F0C631"/>
<path d="M125.733 237.754C127.663 238.105 129.066 240.035 128.715 241.964C128.365 243.894 126.435 245.297 124.506 244.946C122.576 244.595 121.173 242.666 121.524 240.736C121.874 238.631 123.629 237.403 125.733 237.754Z" fill="#F0C631"/>
<path d="M128.837 213.011C128.837 210.977 127.188 209.328 125.153 209.328C123.119 209.328 121.47 210.977 121.47 213.011C121.47 215.046 123.119 216.695 125.153 216.695C127.188 216.695 128.837 215.046 128.837 213.011Z" fill="#F0C631"/>
<path d="M129.266 183.683C128.992 181.668 127.135 180.256 125.119 180.531C123.104 180.806 121.692 182.662 121.967 184.678C122.242 186.694 124.098 188.105 126.114 187.83C128.13 187.556 129.541 185.699 129.266 183.683Z" fill="#F0C631"/>
<path d="M125.733 151.788C127.663 152.139 129.066 154.068 128.715 155.998C128.365 157.927 126.435 159.331 124.506 158.98C122.576 158.629 121.173 156.699 121.524 154.77C121.874 152.665 123.629 151.437 125.733 151.788Z" fill="#F0C631"/>
<path d="M125.733 123.483C127.663 123.834 129.066 125.763 128.715 127.693C128.365 129.622 126.435 131.025 124.506 130.675C122.576 130.324 121.173 128.394 121.524 126.465C121.874 124.36 123.629 123.132 125.733 123.483Z" fill="#F0C631"/>
<path d="M125.733 95.1776C127.663 95.5284 129.066 97.458 128.715 99.3875C128.365 101.317 126.435 102.72 124.506 102.369C122.576 102.019 121.173 100.089 121.524 98.1596C121.874 96.0547 123.629 94.8268 125.733 95.1776Z" fill="#F0C631"/>
<path d="M125.733 66.8722C127.663 67.223 129.066 69.1525 128.715 71.082C128.365 73.0115 126.435 74.4148 124.506 74.064C122.576 73.7132 121.173 71.7836 121.524 69.8541C121.874 67.7492 123.629 66.5214 125.733 66.8722Z" fill="#F0C631"/>
<path d="M125.733 38.567C127.663 38.9178 129.066 40.8474 128.715 42.7769C128.365 44.7064 126.435 46.1096 124.506 45.7588C122.576 45.408 121.173 43.4785 121.524 41.549C121.874 39.4441 123.629 38.2162 125.733 38.567Z" fill="#F0C631"/>
<path d="M125.733 10.2619C127.663 10.6127 129.066 12.5423 128.715 14.4718C128.365 16.4013 126.435 17.8045 124.506 17.4536C122.576 17.1028 121.173 15.1734 121.524 13.2439C121.874 11.3144 123.629 9.91111 125.733 10.2619Z" fill="#F0C631"/>
<path d="M150.028 237.754C151.957 238.105 153.361 240.035 153.01 241.964C152.659 243.894 150.73 245.297 148.8 244.946C146.871 244.595 145.467 242.666 145.818 240.736C146.169 238.631 147.923 237.403 150.028 237.754Z" fill="#F0C631"/>
<path d="M153.131 213.011C153.131 210.977 151.482 209.328 149.448 209.328C147.413 209.328 145.764 210.977 145.764 213.011C145.764 215.046 147.413 216.695 149.448 216.695C151.482 216.695 153.131 215.046 153.131 213.011Z" fill="#F0C631"/>
<path d="M153.561 183.683C153.286 181.668 151.43 180.256 149.414 180.531C147.398 180.806 145.987 182.662 146.262 184.678C146.536 186.694 148.393 188.105 150.408 187.83C152.424 187.556 153.836 185.699 153.561 183.683Z" fill="#F0C631"/>
<path d="M150.028 151.788C151.957 152.139 153.361 154.068 153.01 155.998C152.659 157.927 150.73 159.331 148.8 158.98C146.871 158.629 145.467 156.699 145.818 154.77C146.169 152.665 147.923 151.437 150.028 151.788Z" fill="#F0C631"/>
<path d="M150.028 123.483C151.957 123.834 153.361 125.763 153.01 127.693C152.659 129.622 150.73 131.025 148.8 130.675C146.871 130.324 145.467 128.394 145.818 126.465C146.169 124.36 147.923 123.132 150.028 123.483Z" fill="#F0C631"/>
<path d="M150.028 95.1776C151.957 95.5284 153.361 97.458 153.01 99.3875C152.659 101.317 150.73 102.72 148.8 102.369C146.871 102.019 145.467 100.089 145.818 98.1596C146.169 96.0547 147.923 94.8268 150.028 95.1776Z" fill="#F0C631"/>
<path d="M150.028 66.8722C151.957 67.223 153.361 69.1525 153.01 71.082C152.659 73.0115 150.73 74.4148 148.8 74.064C146.871 73.7132 145.467 71.7836 145.818 69.8541C146.169 67.7492 147.923 66.5214 150.028 66.8722Z" fill="#F0C631"/>
<path d="M150.028 38.567C151.957 38.9178 153.361 40.8474 153.01 42.7769C152.659 44.7064 150.73 46.1096 148.8 45.7588C146.871 45.408 145.467 43.4785 145.818 41.549C146.169 39.4441 147.923 38.2162 150.028 38.567Z" fill="#F0C631"/>
<path d="M150.028 10.2619C151.957 10.6127 153.361 12.5423 153.01 14.4718C152.659 16.4013 150.73 17.8045 148.8 17.4536C146.871 17.1028 145.467 15.1734 145.818 13.2439C146.169 11.3144 147.923 9.91111 150.028 10.2619Z" fill="#F0C631"/>
<path d="M174.322 237.754C176.251 238.105 177.655 240.035 177.304 241.964C176.953 243.894 175.023 245.297 173.094 244.946C171.164 244.595 169.761 242.666 170.112 240.736C170.463 238.631 172.217 237.403 174.322 237.754Z" fill="#F0C631"/>
<path d="M177.425 213.011C177.425 210.977 175.776 209.328 173.742 209.328C171.707 209.328 170.058 210.977 170.058 213.011C170.058 215.046 171.707 216.695 173.742 216.695C175.776 216.695 177.425 215.046 177.425 213.011Z" fill="#F0C631"/>
<path d="M177.855 183.683C177.58 181.668 175.723 180.256 173.708 180.531C171.692 180.806 170.281 182.662 170.555 184.678C170.83 186.694 172.687 188.105 174.702 187.83C176.718 187.556 178.13 185.699 177.855 183.683Z" fill="#F0C631"/>
<path d="M174.322 151.788C176.251 152.139 177.655 154.068 177.304 155.998C176.953 157.927 175.023 159.331 173.094 158.98C171.164 158.629 169.761 156.699 170.112 154.77C170.463 152.665 172.217 151.437 174.322 151.788Z" fill="#F0C631"/>
<path d="M174.322 123.483C176.251 123.834 177.655 125.763 177.304 127.693C176.953 129.622 175.023 131.025 173.094 130.675C171.164 130.324 169.761 128.394 170.112 126.465C170.463 124.36 172.217 123.132 174.322 123.483Z" fill="#F0C631"/>
<path d="M174.322 95.1776C176.251 95.5284 177.655 97.458 177.304 99.3875C176.953 101.317 175.023 102.72 173.094 102.369C171.164 102.019 169.761 100.089 170.112 98.1596C170.463 96.0547 172.217 94.8268 174.322 95.1776Z" fill="#F0C631"/>
<path d="M174.322 66.8722C176.251 67.223 177.655 69.1525 177.304 71.082C176.953 73.0115 175.023 74.4148 173.094 74.064C171.164 73.7132 169.761 71.7836 170.112 69.8541C170.463 67.7492 172.217 66.5214 174.322 66.8722Z" fill="#F0C631"/>
<path d="M174.322 38.567C176.251 38.9178 177.655 40.8474 177.304 42.7769C176.953 44.7064 175.023 46.1096 173.094 45.7588C171.164 45.408 169.761 43.4785 170.112 41.549C170.463 39.4441 172.217 38.2162 174.322 38.567Z" fill="#F0C631"/>
<path d="M174.322 10.2619C176.251 10.6127 177.655 12.5423 177.304 14.4718C176.953 16.4013 175.023 17.8045 173.094 17.4536C171.164 17.1028 169.761 15.1734 170.112 13.2439C170.463 11.3144 172.217 9.91111 174.322 10.2619Z" fill="#F0C631"/>
<path d="M198.616 237.754C200.545 238.105 201.949 240.035 201.598 241.964C201.247 243.894 199.317 245.297 197.388 244.946C195.458 244.595 194.055 242.666 194.406 240.736C194.757 238.631 196.511 237.403 198.616 237.754Z" fill="#F0C631"/>
<path d="M201.719 213.011C201.719 210.977 200.07 209.328 198.036 209.328C196.001 209.328 194.352 210.977 194.352 213.011C194.352 215.046 196.001 216.695 198.036 216.695C200.07 216.695 201.719 215.046 201.719 213.011Z" fill="#F0C631"/>
<path d="M202.149 183.683C201.874 181.668 200.017 180.256 198.002 180.531C195.986 180.806 194.575 182.662 194.849 184.678C195.124 186.694 196.981 188.105 198.996 187.83C201.012 187.556 202.423 185.699 202.149 183.683Z" fill="#F0C631"/>
<path d="M198.616 151.788C200.545 152.139 201.949 154.068 201.598 155.998C201.247 157.927 199.317 159.331 197.388 158.98C195.458 158.629 194.055 156.699 194.406 154.77C194.757 152.665 196.511 151.437 198.616 151.788Z" fill="#F0C631"/>
<path d="M198.616 123.483C200.545 123.834 201.949 125.763 201.598 127.693C201.247 129.622 199.317 131.025 197.388 130.675C195.458 130.324 194.055 128.394 194.406 126.465C194.757 124.36 196.511 123.132 198.616 123.483Z" fill="#F0C631"/>
<path d="M198.616 95.1776C200.545 95.5284 201.949 97.458 201.598 99.3875C201.247 101.317 199.317 102.72 197.388 102.369C195.458 102.019 194.055 100.089 194.406 98.1596C194.757 96.0547 196.511 94.8268 198.616 95.1776Z" fill="#F0C631"/>
<path d="M198.616 66.8722C200.545 67.223 201.949 69.1525 201.598 71.082C201.247 73.0115 199.317 74.4148 197.388 74.064C195.458 73.7132 194.055 71.7836 194.406 69.8541C194.757 67.7492 196.511 66.5214 198.616 66.8722Z" fill="#F0C631"/>
<path d="M198.616 38.567C200.545 38.9178 201.949 40.8474 201.598 42.7769C201.247 44.7064 199.317 46.1096 197.388 45.7588C195.458 45.408 194.055 43.4785 194.406 41.549C194.757 39.4441 196.511 38.2162 198.616 38.567Z" fill="#F0C631"/>
<path d="M198.616 10.2619C200.545 10.6127 201.949 12.5423 201.598 14.4718C201.247 16.4013 199.317 17.8045 197.388 17.4536C195.458 17.1028 194.055 15.1734 194.406 13.2439C194.757 11.3144 196.511 9.91111 198.616 10.2619Z" fill="#F0C631"/>
<path d="M222.91 237.754C224.839 238.105 226.243 240.035 225.892 241.964C225.541 243.894 223.611 245.297 221.682 244.946C219.752 244.595 218.349 242.666 218.7 240.736C219.051 238.631 220.805 237.403 222.91 237.754Z" fill="#F0C631"/>
<path d="M226.013 213.011C226.013 210.977 224.364 209.328 222.33 209.328C220.295 209.328 218.646 210.977 218.646 213.011C218.646 215.046 220.295 216.695 222.33 216.695C224.364 216.695 226.013 215.046 226.013 213.011Z" fill="#F0C631"/>
<path d="M226.443 183.683C226.168 181.668 224.311 180.256 222.296 180.531C220.28 180.806 218.869 182.662 219.143 184.678C219.418 186.694 221.275 188.105 223.29 187.83C225.306 187.556 226.717 185.699 226.443 183.683Z" fill="#F0C631"/>
<path d="M222.91 151.788C224.839 152.139 226.243 154.068 225.892 155.998C225.541 157.927 223.611 159.331 221.682 158.98C219.752 158.629 218.349 156.699 218.7 154.77C219.051 152.665 220.805 151.437 222.91 151.788Z" fill="#F0C631"/>
<path d="M222.91 123.483C224.839 123.834 226.243 125.763 225.892 127.693C225.541 129.622 223.611 131.025 221.682 130.675C219.752 130.324 218.349 128.394 218.7 126.465C219.051 124.36 220.805 123.132 222.91 123.483Z" fill="#F0C631"/>
<path d="M222.91 95.1776C224.839 95.5284 226.243 97.458 225.892 99.3875C225.541 101.317 223.611 102.72 221.682 102.369C219.752 102.019 218.349 100.089 218.7 98.1596C219.051 96.0547 220.805 94.8268 222.91 95.1776Z" fill="#F0C631"/>
<path d="M222.91 66.8722C224.839 67.223 226.243 69.1525 225.892 71.082C225.541 73.0115 223.611 74.4148 221.682 74.064C219.752 73.7132 218.349 71.7836 218.7 69.8541C219.051 67.7492 220.805 66.5214 222.91 66.8722Z" fill="#F0C631"/>
<path d="M222.91 38.567C224.839 38.9178 226.243 40.8474 225.892 42.7769C225.541 44.7064 223.611 46.1096 221.682 45.7588C219.752 45.408 218.349 43.4785 218.7 41.549C219.051 39.4441 220.805 38.2162 222.91 38.567Z" fill="#F0C631"/>
<path d="M222.91 10.2619C224.839 10.6127 226.243 12.5423 225.892 14.4718C225.541 16.4013 223.611 17.8045 221.682 17.4536C219.752 17.1028 218.349 15.1734 218.7 13.2439C219.051 11.3144 220.805 9.91111 222.91 10.2619Z" fill="#F0C631"/>
<path d="M247.204 237.731C249.133 238.081 250.536 240.011 250.186 241.94C249.835 243.87 247.905 245.273 245.976 244.922C244.046 244.572 242.643 242.642 242.994 240.713C243.345 238.608 245.274 237.38 247.204 237.731Z" fill="#F0C631"/>
<path d="M250.307 212.987C250.307 210.953 248.658 209.304 246.623 209.304C244.589 209.304 242.94 210.953 242.94 212.987C242.94 215.022 244.589 216.671 246.623 216.671C248.658 216.671 250.307 215.022 250.307 212.987Z" fill="#F0C631"/>
<path d="M250.737 183.66C250.462 181.644 248.605 180.233 246.59 180.507C244.574 180.782 243.163 182.639 243.437 184.654C243.712 186.67 245.569 188.081 247.584 187.807C249.6 187.532 251.011 185.675 250.737 183.66Z" fill="#F0C631"/>
<path d="M247.204 151.764C249.133 152.115 250.536 154.045 250.186 155.974C249.835 157.904 247.905 159.307 245.976 158.956C244.046 158.605 242.643 156.676 242.994 154.746C243.345 152.641 245.274 151.413 247.204 151.764Z" fill="#F0C631"/>
<path d="M247.204 123.459C249.133 123.81 250.536 125.74 250.186 127.669C249.835 129.599 247.905 131.002 245.976 130.651C244.046 130.3 242.643 128.371 242.994 126.441C243.345 124.512 245.274 123.108 247.204 123.459Z" fill="#F0C631"/>
<path d="M247.204 95.1596C249.133 95.5105 250.536 97.44 250.186 99.3695C249.835 101.299 247.905 102.702 245.976 102.351C244.046 102.001 242.643 100.071 242.994 98.1416C243.345 96.2121 245.274 94.8088 247.204 95.1596Z" fill="#F0C631"/>
<path d="M247.204 66.8601C249.133 67.2109 250.536 69.1404 250.186 71.0699C249.835 72.9994 247.905 74.4026 245.976 74.0518C244.046 73.701 242.643 71.7715 242.994 69.842C243.345 67.9126 245.274 66.5093 247.204 66.8601Z" fill="#F0C631"/>
<path d="M247.204 38.5605C249.133 38.9113 250.536 40.8409 250.186 42.7704C249.835 44.6999 247.905 46.103 245.976 45.7522C244.046 45.4014 242.643 43.472 242.994 41.5425C243.345 39.613 245.274 38.2097 247.204 38.5605Z" fill="#F0C631"/>
<path d="M247.204 10.261C249.133 10.6118 250.536 12.5413 250.186 14.4708C249.835 16.4003 247.905 17.8035 245.976 17.4527C244.046 17.1019 242.643 15.1724 242.994 13.2429C243.345 11.3134 245.274 9.91014 247.204 10.261Z" fill="#F0C631"/>
</svg>
